<svg width="25" height="25" viewBox="0 0 25 25" fill="none" xmlns="http://www.w3.org/2000/svg">
<rect width="25" height="25" fill="#FFD238"/>
<path d="M14.17 13.8203C13.8217 14.0525 13.4171 14.1752 13 14.1752C12.5829 14.1752 12.1783 14.0525 11.83 13.8203L6.09321 9.99562C6.06139 9.9744 6.03038 9.95228 6 9.92953V16.1966C6 16.9152 6.58311 17.4854 7.28879 17.4854H18.7112C19.4297 17.4854 20 16.9023 20 16.1966V9.9295C19.9695 9.95231 19.9385 9.97449 19.9066 9.99573L14.17 13.8203Z" fill="white"/>
<path d="M6.54824 9.31306L12.285 13.1377C12.5022 13.2825 12.7511 13.3549 13 13.3549C13.2489 13.3549 13.4978 13.2825 13.715 13.1377L19.4518 9.31306C19.7951 9.08433 20 8.70152 20 8.28836C20 7.57794 19.422 7 18.7116 7H7.28836C6.57796 7.00003 6 7.57796 6 8.28904C6 8.70152 6.20497 9.08433 6.54824 9.31306V9.31306Z" fill="white"/>
</svg>
