<svg width="30" height="30" viewBox="0 0 30 30" fill="none" xmlns="http://www.w3.org/2000/svg">
<mask id="mask0_5_122" style="mask-type:alpha" maskUnits="userSpaceOnUse" x="0" y="0" width="30" height="30">
<path fill-rule="evenodd" clip-rule="evenodd" d="M7.45591 0.013635L8.73947 0L22.0905 0.00545469C22.2932 0.00727276 22.4195 0.00999884 22.545 0.013635C23.2068 0.0309067 23.8749 0.0690867 24.5294 0.186352C25.1851 0.296971 25.8207 0.504053 26.4157 0.800861C27.0084 1.09902 27.552 1.48809 28.0219 1.95443C28.4921 2.41854 28.8858 2.95425 29.1882 3.5416C29.4973 4.13884 29.6909 4.75062 29.81 5.40694C29.9282 6.05418 29.9673 6.71414 29.9845 7.36865C29.9936 7.66863 29.9973 7.96861 29.9982 8.2695L30 8.80492V20.656C30 21.0124 30 21.3696 29.9982 21.7269C29.9964 22.0268 29.9936 22.3268 29.9845 22.6268C29.9664 23.2813 29.9282 23.9422 29.81 24.5885C29.6978 25.238 29.4882 25.8669 29.1882 26.4539C28.8856 27.0414 28.492 27.5774 28.0219 28.0419C27.5501 28.5081 27.0081 28.8974 26.4157 29.1955C25.8207 29.4924 25.1851 29.6994 24.5294 29.81C23.8749 29.9264 23.2068 29.9645 22.545 29.9827L20.5506 29.9982L7.90952 29.9909C7.75829 29.9893 7.60708 29.9862 7.45591 29.9818C6.79413 29.9655 6.12599 29.9264 5.47149 29.81C4.81615 29.6994 4.18081 29.4923 3.58615 29.1955C2.39581 28.5965 1.4249 27.637 0.811769 26.4539C0.512222 25.8667 0.302621 25.2379 0.189988 24.5885C0.0718135 23.9422 0.033634 23.2813 0.0163623 22.6277C0.00727197 22.3277 0.00454542 22.0268 0.00272734 21.7269L0 21.1896V9.34034C0 8.984 2.3578e-07 8.62675 0.00272734 8.27041C0.00454542 7.97043 0.008181 7.67044 0.0163623 7.36955C0.034543 6.71505 0.0727225 6.05509 0.189988 5.40785C0.302554 4.75842 0.512159 4.1296 0.811769 3.54251C1.42401 2.35902 2.39476 1.39941 3.58524 0.800861C4.18021 0.50404 4.81585 0.296958 5.47149 0.186352C6.12599 0.0699957 6.79413 0.0318157 7.45591 0.013635Z" fill="white"/>
</mask>
<g mask="url(#mask0_5_122)">
<path d="M0 -0.0019989H30.0009V29.9989H0V-0.0019989Z" fill="#19AA1E"/>
<path fill-rule="evenodd" clip-rule="evenodd" d="M0 -0.0019989H30.0009V9.84104L0 5.15405V-0.0019989Z" fill="#FFB919"/>
<path fill-rule="evenodd" clip-rule="evenodd" d="M0 26.7166L30.0009 22.0296V29.9982H0V26.7166Z" fill="#82D714"/>
<path fill-rule="evenodd" clip-rule="evenodd" d="M0 4.56154L10.4721 6.1978C11.7757 5.3724 13.3265 4.9197 15 4.9197C17.318 4.9197 19.4016 5.78783 20.9178 7.31137C21.1087 7.50409 21.2887 7.70498 21.4587 7.91406L30.0009 9.24853V10.4348L22.3259 9.23489C22.9003 10.333 23.2013 11.5536 23.2031 12.7929C23.2031 14.4 22.8441 16.0027 22.1005 17.6117L22.0787 17.6607L21.7623 18.3371H21.0169C19.4752 18.3371 18.4534 18.7979 17.7844 19.6152C17.2599 20.256 16.9562 21.1214 16.8544 22.065L16.8508 22.0941L16.8363 22.245L16.8299 22.3105L16.8172 22.4386C16.7781 22.8604 16.7526 23.2177 16.739 23.5086L30.0009 21.436V22.6223L0 27.3102V26.1239L13.2765 24.0494L13.271 23.7831L13.2692 23.7086L13.2674 23.6695L13.2656 23.6104C13.2537 23.2877 13.2237 22.8741 13.1765 22.3723L13.1674 22.2768L13.151 22.1123C13.0565 21.1633 12.7574 20.2879 12.2329 19.637C11.572 18.8143 10.5603 18.3462 9.03036 18.3371H8.23768L7.92225 17.6607C7.16411 16.0354 6.79686 14.4164 6.79686 12.7929C6.79686 10.7512 7.62499 8.77674 9.08309 7.31137L9.21035 7.18683L0 5.74692V4.56154Z" fill="white"/>
<path fill-rule="evenodd" clip-rule="evenodd" d="M15 6.09145C19.1889 6.09145 22.0314 9.31489 22.0314 12.7929C22.0314 14.1891 21.7269 15.6418 21.016 17.1653C16.8954 17.1653 15.8781 20.1161 15.6854 21.9741L15.6727 22.0968C15.6082 22.7604 15.57 23.2922 15.56 23.6922L14.4437 23.8667V23.8304C14.4281 23.2396 14.3881 22.6497 14.3237 22.0623L14.321 22.0296C14.1428 20.176 13.1474 17.1653 8.98493 17.1653C8.27315 15.6418 7.96863 14.1891 7.96863 12.7929C7.96863 9.31489 10.8121 6.09145 15 6.09145Z" fill="#0073FA"/>
</g>
</svg>
