<svg width="39" height="26" viewBox="0 0 39 26" fill="none" xmlns="http://www.w3.org/2000/svg">
<path d="M38.9995 0.551804H0.827698V25.9999H38.9995V0.551804Z" fill="#F0F0F0"/>
<path d="M22.2993 0.551651H17.5278V10.8898H0.827698V15.6613H17.5278V25.9994H22.2993V15.6613H38.9995V10.8898H22.2993V0.551651Z" fill="#D80027"/>
<path d="M30.186 17.7012L38.9994 22.5976V17.7012H30.186Z" fill="#0052B4"/>
<path d="M24.0627 17.7012L38.9995 25.9994V23.6529L28.2866 17.7012H24.0627Z" fill="#0052B4"/>
<path d="M35.0208 25.9994L24.0627 19.911V25.9994H35.0208Z" fill="#0052B4"/>
<path d="M24.0627 17.7012L38.9995 25.9994V23.6529L28.2866 17.7012H24.0627Z" fill="#F0F0F0"/>
<path d="M24.0627 17.7012L38.9995 25.9994V23.6529L28.2866 17.7012H24.0627Z" fill="#D80027"/>
<path d="M7.563 17.7011L0.827698 21.4429V17.7011H7.563Z" fill="#0052B4"/>
<path d="M15.7645 18.7563V25.9993H2.72821L15.7645 18.7563Z" fill="#0052B4"/>
<path d="M11.5406 17.7012L0.827698 23.6529V25.9994L15.7645 17.7012H11.5406Z" fill="#D80027"/>
<path d="M9.64113 8.84984L0.827698 3.95341V8.84984H9.64113Z" fill="#0052B4"/>
<path d="M15.7645 8.84984L0.827698 0.551651V2.89817L11.5406 8.84984H15.7645Z" fill="#0052B4"/>
<path d="M4.80634 0.551651L15.7645 6.64005V0.551651H4.80634Z" fill="#0052B4"/>
<path d="M15.7645 8.84984L0.827698 0.551651V2.89817L11.5406 8.84984H15.7645Z" fill="#F0F0F0"/>
<path d="M15.7645 8.84984L0.827698 0.551651V2.89817L11.5406 8.84984H15.7645Z" fill="#D80027"/>
<path d="M32.2642 8.85L38.9995 5.10812V8.85H32.2642Z" fill="#0052B4"/>
<path d="M24.0627 7.79475V0.551727H37.099L24.0627 7.79475Z" fill="#0052B4"/>
<path d="M28.2866 8.84984L38.9995 2.89817V0.551651L24.0627 8.84984H28.2866Z" fill="#D80027"/>
</svg>
