<svg width="25" height="42" viewBox="0 0 25 42" fill="none" xmlns="http://www.w3.org/2000/svg">
<path d="M12.354 0C5.54192 0 0 5.54192 0 12.354V29.646C0 36.4581 5.54192 42 12.354 42C19.1662 42 24.7081 36.4581 24.7081 29.646V12.354C24.7081 5.54192 19.1662 0 12.354 0ZM22.1882 29.646C22.1882 35.0684 17.7764 39.4801 12.354 39.4801C6.93164 39.4801 2.5199 35.0684 2.5199 29.646V12.354C2.5199 6.93164 6.93164 2.5199 12.354 2.5199C17.7764 2.5199 22.1882 6.93164 22.1882 12.354V29.646Z" fill="#FFD238"/>
<path d="M12.3544 8.35501C11.6584 8.35501 11.0944 8.91898 11.0944 9.61496V15.4142C11.0944 16.1098 11.6584 16.6741 12.3544 16.6741C13.05 16.6741 13.6143 16.1098 13.6143 15.4142V9.61496C13.6143 8.91898 13.0503 8.35501 12.3544 8.35501Z" fill="#FFD238"/>
</svg>
