<svg width="25" height="25" viewBox="0 0 25 25" fill="none" xmlns="http://www.w3.org/2000/svg">
<rect width="25" height="25" fill="#FFD238"/>
<path fill-rule="evenodd" clip-rule="evenodd" d="M17.8145 7.19035C16.4045 5.77863 14.5292 5.00083 12.5314 5C8.41469 5 5.0643 8.35029 5.06265 12.4681C5.0621 13.7844 5.40596 15.0694 6.05957 16.202L5 20.0721L8.95928 19.0335C10.0502 19.6286 11.2784 19.9422 12.5283 19.9426H12.5315C16.6477 19.9426 19.9984 16.592 20 12.4741C20.0008 10.4784 19.2247 8.60198 17.8145 7.19035ZM12.5314 18.6813H12.5288C11.4149 18.6808 10.3225 18.3815 9.3693 17.816L9.14272 17.6814L6.79322 18.2978L7.42033 16.007L7.27269 15.7722C6.65127 14.7838 6.32313 13.6414 6.32369 12.4685C6.32497 9.04594 9.10978 6.26141 12.5339 6.26141C14.1919 6.26196 15.7506 6.90849 16.9226 8.08186C18.0946 9.25523 18.7396 10.8149 18.7391 12.4736C18.7376 15.8965 15.953 18.6813 12.5314 18.6813ZM15.9364 14.0321C15.7498 13.9386 14.8323 13.4873 14.6612 13.4249C14.4903 13.3626 14.3657 13.3316 14.2414 13.5184C14.117 13.7051 13.7594 14.1255 13.6505 14.25C13.5415 14.3745 13.4328 14.3902 13.2462 14.2967C13.0595 14.2033 12.4582 14.0062 11.7454 13.3704C11.1907 12.8756 10.8162 12.2645 10.7072 12.0778C10.5985 11.8908 10.7063 11.7996 10.7891 11.6969C10.9911 11.446 11.1934 11.183 11.2556 11.0586C11.3179 10.934 11.2867 10.825 11.24 10.7316C11.1934 10.6382 10.8202 9.7197 10.6647 9.34593C10.5131 8.98219 10.3594 9.03131 10.2448 9.02561C10.1361 9.02018 10.0116 9.01908 9.88713 9.01908C9.76275 9.01908 9.56055 9.06572 9.38944 9.25265C9.21843 9.43949 8.73639 9.8909 8.73639 10.8094C8.73639 11.728 9.40508 12.6154 9.49836 12.7399C9.59164 12.8645 10.8143 14.7494 12.6863 15.5577C13.1315 15.7501 13.4791 15.8648 13.7502 15.9508C14.1973 16.0929 14.604 16.0728 14.9256 16.0248C15.2842 15.9712 16.0296 15.5733 16.1852 15.1374C16.3407 14.7015 16.3407 14.3279 16.294 14.25C16.2474 14.1722 16.123 14.1255 15.9364 14.0321Z" fill="white"/>
</svg>
