<svg width="16" height="16" viewBox="0 0 16 16" fill="none" xmlns="http://www.w3.org/2000/svg">
<path d="M9.20085 6.79921C8.56379 6.16241 7.6999 5.80469 6.79915 5.80469C5.8984 5.80469 5.03451 6.16241 4.39745 6.79921L1.99498 9.20091C1.3579 9.83798 1 10.702 1 11.603C1 12.504 1.3579 13.368 1.99498 14.0051C2.63205 14.6422 3.49611 15.0001 4.39706 15.0001C5.29802 15.0001 6.16208 14.6422 6.79915 14.0051L8 12.8042" stroke="#FFD238" stroke-width="1.5555" stroke-linecap="round" stroke-linejoin="round"/>
<path d="M6.79915 9.20085C7.43621 9.83764 8.30009 10.1954 9.20085 10.1954C10.1016 10.1954 10.9655 9.83764 11.6025 9.20085L14.005 6.79915C14.6421 6.16208 15 5.29802 15 4.39706C15 3.49611 14.6421 2.63205 14.005 1.99498C13.3679 1.3579 12.5039 1 11.6029 1C10.702 1 9.83792 1.3579 9.20085 1.99498L8 3.19583" stroke="#FFD238" stroke-width="1.5555" stroke-linecap="round" stroke-linejoin="round"/>
</svg>
