<svg width="150" height="117" viewBox="0 0 150 117" fill="none" xmlns="http://www.w3.org/2000/svg">
<path d="M113.301 78.75H111.487L110.329 74.1213C110.238 73.7561 109.91 73.5 109.534 73.5H38.4663C38.09 73.5 37.7619 73.7561 37.6705 74.1213L36.5133 78.75H34.6991C33.2857 78.75 32.0695 79.8362 32.0029 81.248C31.9319 82.7554 33.133 84 34.625 84H113.375C114.867 84 116.068 82.7554 115.997 81.248C115.93 79.8362 114.714 78.75 113.301 78.75Z" fill="#FFD238"/>
<path d="M67.5116 22.3125H71.375V26.3602C55.2294 27.6987 42.5 41.2647 42.5 57.75V59.0625C41.008 59.0625 39.8077 60.3056 39.8779 61.813C39.9436 63.2254 41.1598 64.3125 42.5736 64.3125H50.375V67.4297C50.375 67.8826 50.7423 68.25 51.1953 68.25H96.8046C97.2576 68.25 97.625 67.8826 97.625 67.4297V64.3125H105.426C106.84 64.3125 108.056 63.2254 108.122 61.813C108.192 60.3056 106.992 59.0625 105.5 59.0625V57.75C105.5 41.2647 92.7705 27.6987 76.625 26.3602V22.3125H80.4883C81.9017 22.3125 83.1179 21.2262 83.1845 19.8145C83.2556 18.3071 82.0544 17.0625 80.5625 17.0625H67.4375C65.9455 17.0625 64.7444 18.3071 64.8154 19.8145C64.882 21.2262 66.0982 22.3125 67.5116 22.3125Z" fill="#FFD238"/>
<path d="M34.625 44.625H39.875C41.3248 44.625 42.5 43.4497 42.5 42C42.5 40.5503 41.3248 39.375 39.875 39.375H34.625C33.1751 39.375 32 40.5503 32 42C32 43.4497 33.1751 44.625 34.625 44.625Z" fill="#FFD238"/>
<path d="M108.125 44.625H113.375C114.825 44.625 116 43.4497 116 42C116 40.5503 114.825 39.375 113.375 39.375H108.125C106.675 39.375 105.5 40.5503 105.5 42C105.5 43.4497 106.675 44.625 108.125 44.625Z" fill="#FFD238"/>
<path d="M48.0138 19.7262C49.0389 20.7513 50.701 20.7514 51.726 19.7262C52.7513 18.701 52.7513 17.039 51.726 16.014L48.0136 12.3014C46.9886 11.2763 45.3265 11.2762 44.3014 12.3014C43.2762 13.3266 43.2762 14.9886 44.3014 16.0136L48.0138 19.7262Z" fill="#FFD238"/>
<path d="M98.13 20.495C98.8018 20.495 99.4735 20.2386 99.986 19.7262L103.698 16.014C104.724 14.9887 104.724 13.3268 103.698 12.3017C102.674 11.2767 101.011 11.2767 99.9862 12.3017L96.2738 16.014C94.6154 17.6721 95.8124 20.495 98.13 20.495Z" fill="#FFD238"/>
<path d="M74 10.5C75.4498 10.5 76.625 9.32465 76.625 7.875V2.625C76.625 1.17534 75.4498 0 74 0C72.5501 0 71.375 1.17534 71.375 2.625V7.875C71.375 9.32465 72.5501 10.5 74 10.5Z" fill="#FFD238"/>
<path d="M88.5817 86.299C88.5817 88.1168 82.5896 89.5307 75.1163 89.5307C67.7104 89.5307 61.651 88.0495 61.651 86.299C61.651 84.4812 67.6431 83.0674 75.1163 83.0674C82.5896 83.0674 88.5817 84.4812 88.5817 86.299Z" stroke="#FFD238" stroke-width="0.534574" stroke-miterlimit="10"/>
<path opacity="0.9091" d="M75.1163 92.0218C85.6393 92.0218 94.1698 89.7309 94.1698 86.905C94.1698 84.079 85.6393 81.7881 75.1163 81.7881C64.5934 81.7881 56.0629 84.079 56.0629 86.905C56.0629 89.7309 64.5934 92.0218 75.1163 92.0218Z" stroke="#FFD238" stroke-width="0.490812" stroke-miterlimit="10"/>
<path opacity="0.8182" d="M75.1163 94.5802C88.7255 94.5802 99.7579 91.4453 99.7579 87.5782C99.7579 83.7112 88.7255 80.5763 75.1163 80.5763C61.5072 80.5763 50.4748 83.7112 50.4748 87.5782C50.4748 91.4453 61.5072 94.5802 75.1163 94.5802Z" stroke="#FFD238" stroke-width="0.446982" stroke-miterlimit="10"/>
<path opacity="0.7273" d="M75.1163 97.004C91.7745 97.004 105.279 93.0552 105.279 88.1842C105.279 83.3131 91.7745 79.3644 75.1163 79.3644C58.4581 79.3644 44.9539 83.3131 44.9539 88.1842C44.9539 93.0552 58.4581 97.004 75.1163 97.004Z" stroke="#FFD238" stroke-width="0.40322" stroke-miterlimit="10"/>
<path opacity="0.6364" d="M75.1163 99.5624C94.8608 99.5624 110.867 94.7696 110.867 88.8574C110.867 82.9453 94.8608 78.1525 75.1163 78.1525C55.3719 78.1525 39.3658 82.9453 39.3658 88.8574C39.3658 94.7696 55.3719 99.5624 75.1163 99.5624Z" stroke="#FFD238" stroke-width="0.359457" stroke-miterlimit="10"/>
<path opacity="0.5455" d="M75.1164 102.053C97.947 102.053 116.455 96.4167 116.455 89.4634C116.455 82.5101 97.947 76.8733 75.1164 76.8733C52.2857 76.8733 33.7777 82.5101 33.7777 89.4634C33.7777 96.4167 52.2857 102.053 75.1164 102.053Z" stroke="#FFD238" stroke-width="0.315628" stroke-miterlimit="10"/>
<path opacity="0.4545" d="M75.1164 104.477C101.033 104.477 122.043 98.0266 122.043 90.0693C122.043 82.112 101.033 75.6614 75.1164 75.6614C49.1994 75.6614 28.1896 82.112 28.1896 90.0693C28.1896 98.0266 49.1994 104.477 75.1164 104.477Z" stroke="#FFD238" stroke-width="0.271865" stroke-miterlimit="10"/>
<path opacity="0.3636" d="M75.1163 107.036C104.119 107.036 127.631 99.741 127.631 90.7426C127.631 81.7442 104.119 74.4495 75.1163 74.4495C46.1132 74.4495 22.6015 81.7442 22.6015 90.7426C22.6015 99.741 46.1132 107.036 75.1163 107.036Z" stroke="#FFD238" stroke-width="0.228103" stroke-miterlimit="10"/>
<path opacity="0.2727" d="M75.1164 109.527C107.169 109.527 133.152 101.388 133.152 91.3485C133.152 81.309 107.169 73.1703 75.1164 73.1703C43.0642 73.1703 17.0807 81.309 17.0807 91.3485C17.0807 101.388 43.0642 109.527 75.1164 109.527Z" stroke="#FFD238" stroke-width="0.184273" stroke-miterlimit="10"/>
<path opacity="0.1818" d="M75.1163 111.951C110.255 111.951 138.74 102.998 138.74 91.9545C138.74 80.911 110.255 71.9585 75.1163 71.9585C39.9779 71.9585 11.4926 80.911 11.4926 91.9545C11.4926 102.998 39.9779 111.951 75.1163 111.951Z" stroke="#FFD238" stroke-width="0.140511" stroke-miterlimit="10"/>
<path opacity="0.090909" d="M75.1163 114.509C113.341 114.509 144.328 104.712 144.328 92.6277C144.328 80.5431 113.341 70.7466 75.1163 70.7466C36.8917 70.7466 5.90445 80.5431 5.90445 92.6277C5.90445 104.712 36.8917 114.509 75.1163 114.509Z" stroke="#FFD238" stroke-width="0.0967485" stroke-miterlimit="10"/>
</svg>
