<svg width="150" height="109" viewBox="0 0 150 109" fill="none" xmlns="http://www.w3.org/2000/svg">
<path d="M17 66.5926C17.0019 68.3012 17.6815 69.9392 18.8897 71.1474C20.0978 72.3555 21.7359 73.0351 23.4444 73.037H126.556C128.264 73.0351 129.902 72.3555 131.11 71.1474C132.318 69.9392 132.998 68.3012 133 66.5926V30.1557H17V66.5926Z" fill="#FFD238"/>
<path d="M17 12.9705H133V25.6961H17V12.9705Z" fill="#FFD238"/>
<path d="M126.556 0H23.4444C21.7359 0.00193311 20.0978 0.681521 18.8897 1.88967C17.6815 3.09782 17.0019 4.73586 17 6.44444V8.51096H133V6.44444C132.998 4.73586 132.318 3.09782 131.11 1.88967C129.902 0.681521 128.264 0.00193311 126.556 0Z" fill="#FFD238"/>
<path d="M88.5817 78.2991C88.5817 80.1169 82.5896 81.5308 75.1163 81.5308C67.7104 81.5308 61.651 80.0496 61.651 78.2991C61.651 76.4813 67.6431 75.0674 75.1163 75.0674C82.5896 75.0674 88.5817 76.4813 88.5817 78.2991Z" stroke="#FFD238" stroke-width="0.534574" stroke-miterlimit="10"/>
<path opacity="0.9091" d="M75.1163 84.0219C85.6393 84.0219 94.1698 81.731 94.1698 78.905C94.1698 76.0791 85.6393 73.7882 75.1163 73.7882C64.5934 73.7882 56.0629 76.0791 56.0629 78.905C56.0629 81.731 64.5934 84.0219 75.1163 84.0219Z" stroke="#FFD238" stroke-width="0.490812" stroke-miterlimit="10"/>
<path opacity="0.8182" d="M75.1163 86.5803C88.7255 86.5803 99.7579 83.4454 99.7579 79.5783C99.7579 75.7113 88.7255 72.5764 75.1163 72.5764C61.5072 72.5764 50.4748 75.7113 50.4748 79.5783C50.4748 83.4454 61.5072 86.5803 75.1163 86.5803Z" stroke="#FFD238" stroke-width="0.446982" stroke-miterlimit="10"/>
<path opacity="0.7273" d="M75.1163 89.004C91.7745 89.004 105.279 85.0553 105.279 80.1842C105.279 75.3132 91.7745 71.3644 75.1163 71.3644C58.4581 71.3644 44.954 75.3132 44.954 80.1842C44.954 85.0553 58.4581 89.004 75.1163 89.004Z" stroke="#FFD238" stroke-width="0.40322" stroke-miterlimit="10"/>
<path opacity="0.6364" d="M75.1163 91.5625C94.8608 91.5625 110.867 86.7697 110.867 80.8575C110.867 74.9454 94.8608 70.1526 75.1163 70.1526C55.3719 70.1526 39.3658 74.9454 39.3658 80.8575C39.3658 86.7697 55.3719 91.5625 75.1163 91.5625Z" stroke="#FFD238" stroke-width="0.359457" stroke-miterlimit="10"/>
<path opacity="0.5455" d="M75.1163 94.0536C97.947 94.0536 116.455 88.4168 116.455 81.4635C116.455 74.5101 97.947 68.8734 75.1163 68.8734C52.2857 68.8734 33.7777 74.5101 33.7777 81.4635C33.7777 88.4168 52.2857 94.0536 75.1163 94.0536Z" stroke="#FFD238" stroke-width="0.315628" stroke-miterlimit="10"/>
<path opacity="0.4545" d="M75.1163 96.4773C101.033 96.4773 122.043 90.0267 122.043 82.0694C122.043 74.1121 101.033 67.6615 75.1163 67.6615C49.1994 67.6615 28.1896 74.1121 28.1896 82.0694C28.1896 90.0267 49.1994 96.4773 75.1163 96.4773Z" stroke="#FFD238" stroke-width="0.271865" stroke-miterlimit="10"/>
<path opacity="0.3636" d="M75.1163 99.0357C104.119 99.0357 127.631 91.7411 127.631 82.7427C127.631 73.7442 104.119 66.4496 75.1163 66.4496C46.1132 66.4496 22.6015 73.7442 22.6015 82.7427C22.6015 91.7411 46.1132 99.0357 75.1163 99.0357Z" stroke="#FFD238" stroke-width="0.228103" stroke-miterlimit="10"/>
<path opacity="0.2727" d="M75.1164 101.527C107.169 101.527 133.152 93.3882 133.152 83.3486C133.152 73.3091 107.169 65.1704 75.1164 65.1704C43.0642 65.1704 17.0807 73.3091 17.0807 83.3486C17.0807 93.3882 43.0642 101.527 75.1164 101.527Z" stroke="#FFD238" stroke-width="0.184273" stroke-miterlimit="10"/>
<path opacity="0.1818" d="M75.1163 103.951C110.255 103.951 138.74 94.998 138.74 83.9545C138.74 72.911 110.255 63.9585 75.1163 63.9585C39.9779 63.9585 11.4926 72.911 11.4926 83.9545C11.4926 94.998 39.9779 103.951 75.1163 103.951Z" stroke="#FFD238" stroke-width="0.140511" stroke-miterlimit="10"/>
<path opacity="0.090909" d="M75.1163 106.509C113.341 106.509 144.328 96.7125 144.328 84.6278C144.328 72.5432 113.341 62.7466 75.1163 62.7466C36.8917 62.7466 5.90445 72.5432 5.90445 84.6278C5.90445 96.7125 36.8917 106.509 75.1163 106.509Z" stroke="#FFD238" stroke-width="0.0967485" stroke-miterlimit="10"/>
</svg>
