<svg width="150" height="134" viewBox="0 0 150 134" fill="none" xmlns="http://www.w3.org/2000/svg">
<path d="M113 13.5585C113 9.99018 111.582 6.56797 109.059 4.04475C106.536 1.52153 103.114 0.104004 99.5455 0.104004H52.4546C48.8862 0.104004 45.464 1.52153 42.9408 4.04475C40.4175 6.56797 39 9.99018 39 13.5585V95.194C38.9978 96.0359 39.2197 96.8631 39.643 97.5909C40.0662 98.3186 40.6756 98.9205 41.4084 99.3349C42.1412 99.7492 42.9711 99.9611 43.8129 99.9486C44.6547 99.9362 45.478 99.6999 46.1982 99.264L58.5764 91.864C58.7565 91.7468 58.9669 91.6843 59.1818 91.6843C59.3968 91.6843 59.6071 91.7468 59.7873 91.864L73.5446 100.105C74.2915 100.537 75.1373 100.768 76 100.778C76.855 100.789 77.6954 100.556 78.4218 100.105L92.2464 91.864C92.4331 91.7477 92.6487 91.6861 92.8687 91.6861C93.0886 91.6861 93.3042 91.7477 93.4909 91.864L105.802 99.264C106.522 99.6999 107.345 99.9362 108.187 99.9486C109.029 99.9611 109.859 99.7492 110.592 99.3349C111.324 98.9205 111.934 98.3186 112.357 97.5909C112.78 96.8631 113.002 96.0359 113 95.194V13.5585ZM89.4546 47.834H62.5455C61.6534 47.834 60.7978 47.4796 60.167 46.8488C59.5362 46.218 59.1818 45.3625 59.1818 44.4704C59.1818 43.5783 59.5362 42.7227 60.167 42.0919C60.7978 41.4611 61.6534 41.1067 62.5455 41.1067H89.4546C90.3467 41.1067 91.2022 41.4611 91.833 42.0919C92.4638 42.7227 92.8182 43.5783 92.8182 44.4704C92.8182 45.3625 92.4638 46.218 91.833 46.8488C91.2022 47.4796 90.3467 47.834 89.4546 47.834ZM92.8182 62.8695C92.8182 63.7615 92.4638 64.6171 91.833 65.2479C91.2022 65.8787 90.3467 66.2331 89.4546 66.2331H62.5455C61.6534 66.2331 60.7978 65.8787 60.167 65.2479C59.5362 64.6171 59.1818 63.7615 59.1818 62.8695C59.1818 61.9774 59.5362 61.1218 60.167 60.491C60.7978 59.8602 61.6534 59.5058 62.5455 59.5058H89.4546C90.3467 59.5058 91.2022 59.8602 91.833 60.491C92.4638 61.1218 92.8182 61.9774 92.8182 62.8695ZM89.4546 29.8049H62.5455C61.6534 29.8049 60.7978 29.4505 60.167 28.8197C59.5362 28.1889 59.1818 27.3334 59.1818 26.4413C59.1818 25.5492 59.5362 24.6936 60.167 24.0628C60.7978 23.432 61.6534 23.0776 62.5455 23.0776H89.4546C90.3467 23.0776 91.2022 23.432 91.833 24.0628C92.4638 24.6936 92.8182 25.5492 92.8182 26.4413C92.8182 27.3334 92.4638 28.1889 91.833 28.8197C91.2022 29.4505 90.3467 29.8049 89.4546 29.8049Z" fill="#FFD238"/>
<path d="M88.5817 103.299C88.5817 105.117 82.5896 106.531 75.1163 106.531C67.7104 106.531 61.651 105.05 61.651 103.299C61.651 101.481 67.6431 100.067 75.1163 100.067C82.5896 100.067 88.5817 101.481 88.5817 103.299Z" stroke="#FFD238" stroke-width="0.534574" stroke-miterlimit="10"/>
<path opacity="0.9091" d="M75.1163 109.022C85.6393 109.022 94.1698 106.731 94.1698 103.905C94.1698 101.079 85.6393 98.7882 75.1163 98.7882C64.5934 98.7882 56.0629 101.079 56.0629 103.905C56.0629 106.731 64.5934 109.022 75.1163 109.022Z" stroke="#FFD238" stroke-width="0.490812" stroke-miterlimit="10"/>
<path opacity="0.8182" d="M75.1163 111.58C88.7255 111.58 99.7579 108.445 99.7579 104.578C99.7579 100.711 88.7255 97.5764 75.1163 97.5764C61.5072 97.5764 50.4748 100.711 50.4748 104.578C50.4748 108.445 61.5072 111.58 75.1163 111.58Z" stroke="#FFD238" stroke-width="0.446982" stroke-miterlimit="10"/>
<path opacity="0.7273" d="M75.1163 114.004C91.7745 114.004 105.279 110.055 105.279 105.184C105.279 100.313 91.7745 96.3644 75.1163 96.3644C58.4581 96.3644 44.9539 100.313 44.9539 105.184C44.9539 110.055 58.4581 114.004 75.1163 114.004Z" stroke="#FFD238" stroke-width="0.40322" stroke-miterlimit="10"/>
<path opacity="0.6364" d="M75.1163 116.562C94.8608 116.562 110.867 111.77 110.867 105.858C110.867 99.9454 94.8608 95.1526 75.1163 95.1526C55.3719 95.1526 39.3658 99.9454 39.3658 105.858C39.3658 111.77 55.3719 116.562 75.1163 116.562Z" stroke="#FFD238" stroke-width="0.359457" stroke-miterlimit="10"/>
<path opacity="0.5455" d="M75.1163 119.054C97.947 119.054 116.455 113.417 116.455 106.463C116.455 99.5101 97.947 93.8734 75.1163 93.8734C52.2856 93.8734 33.7777 99.5101 33.7777 106.463C33.7777 113.417 52.2856 119.054 75.1163 119.054Z" stroke="#FFD238" stroke-width="0.315628" stroke-miterlimit="10"/>
<path opacity="0.4545" d="M75.1164 121.477C101.033 121.477 122.043 115.027 122.043 107.069C122.043 99.1121 101.033 92.6615 75.1164 92.6615C49.1994 92.6615 28.1896 99.1121 28.1896 107.069C28.1896 115.027 49.1994 121.477 75.1164 121.477Z" stroke="#FFD238" stroke-width="0.271865" stroke-miterlimit="10"/>
<path opacity="0.3636" d="M75.1163 124.036C104.119 124.036 127.631 116.741 127.631 107.743C127.631 98.7442 104.119 91.4496 75.1163 91.4496C46.1131 91.4496 22.6014 98.7442 22.6014 107.743C22.6014 116.741 46.1131 124.036 75.1163 124.036Z" stroke="#FFD238" stroke-width="0.228103" stroke-miterlimit="10"/>
<path opacity="0.2727" d="M75.1163 126.527C107.169 126.527 133.152 118.388 133.152 108.349C133.152 98.3091 107.169 90.1704 75.1163 90.1704C43.0641 90.1704 17.0807 98.3091 17.0807 108.349C17.0807 118.388 43.0641 126.527 75.1163 126.527Z" stroke="#FFD238" stroke-width="0.184273" stroke-miterlimit="10"/>
<path opacity="0.1818" d="M75.1163 128.951C110.255 128.951 138.74 119.998 138.74 108.955C138.74 97.911 110.255 88.9585 75.1163 88.9585C39.9779 88.9585 11.4926 97.911 11.4926 108.955C11.4926 119.998 39.9779 128.951 75.1163 128.951Z" stroke="#FFD238" stroke-width="0.140511" stroke-miterlimit="10"/>
<path opacity="0.090909" d="M75.1163 131.509C113.341 131.509 144.328 121.712 144.328 109.628C144.328 97.5432 113.341 87.7466 75.1163 87.7466C36.8916 87.7466 5.90442 97.5432 5.90442 109.628C5.90442 121.712 36.8916 131.509 75.1163 131.509Z" stroke="#FFD238" stroke-width="0.0967485" stroke-miterlimit="10"/>
</svg>
