<svg width="150" height="133" viewBox="0 0 150 133" fill="none" xmlns="http://www.w3.org/2000/svg">
<path d="M76.3059 0.292739C76.0526 0.102719 75.7444 0 75.4277 0C75.111 0 74.8029 0.102719 74.5495 0.292739C74.169 0.585477 37.2253 29.2885 46.4905 91.0417C46.5434 91.3908 46.7207 91.7089 46.9897 91.9375C47.2587 92.1662 47.6012 92.2899 47.9542 92.2859H102.916C103.269 92.2899 103.611 92.1662 103.88 91.9375C104.149 91.7089 104.327 91.3908 104.38 91.0417C113.63 29.2739 76.6865 0.585477 76.3059 0.292739ZM60.0736 51.1414H59.7077C59.3195 51.1414 58.9472 50.9872 58.6727 50.7127C58.3982 50.4382 58.244 50.066 58.244 49.6778C58.244 49.2896 58.3982 48.9173 58.6727 48.6428C58.9472 48.3683 59.3195 48.2141 59.7077 48.2141H60.0736C60.4618 48.2141 60.8341 48.3683 61.1086 48.6428C61.3831 48.9173 61.5373 49.2896 61.5373 49.6778C61.5373 50.066 61.3831 50.4382 61.1086 50.7127C60.8341 50.9872 60.4618 51.1414 60.0736 51.1414ZM65.1819 40.9834H64.8159C64.4278 40.9834 64.0555 40.8292 63.781 40.5547C63.5065 40.2802 63.3523 39.9079 63.3523 39.5197C63.3523 39.1315 63.5065 38.7592 63.781 38.4847C64.0555 38.2102 64.4278 38.056 64.8159 38.056H65.1819C65.5701 38.056 65.9424 38.2102 66.2169 38.4847C66.4914 38.7592 66.6456 39.1315 66.6456 39.5197C66.6456 39.9079 66.4914 40.2802 66.2169 40.5547C65.9424 40.8292 65.5701 40.9834 65.1819 40.9834ZM69.573 27.4443H69.9389C70.3271 27.4443 70.6994 27.5985 70.9739 27.873C71.2484 28.1475 71.4026 28.5198 71.4026 28.9079C71.4026 29.2961 71.2484 29.6684 70.9739 29.9429C70.6994 30.2174 70.3271 30.3716 69.9389 30.3716H69.573C69.1848 30.3716 68.8125 30.2174 68.538 29.9429C68.2635 29.6684 68.1093 29.2961 68.1093 28.9079C68.1093 28.5198 68.2635 28.1475 68.538 27.873C68.8125 27.5985 69.1848 27.4443 69.573 27.4443ZM70.2609 51.1122H69.895C69.5068 51.1122 69.1345 50.958 68.86 50.6835C68.5855 50.409 68.4313 50.0367 68.4313 49.6485C68.4313 49.2603 68.5855 48.888 68.86 48.6135C69.1345 48.339 69.5068 48.1848 69.895 48.1848H70.2609C70.6491 48.1848 71.0214 48.339 71.2959 48.6135C71.5704 48.888 71.7246 49.2603 71.7246 49.6485C71.7246 50.0367 71.5704 50.409 71.2959 50.6835C71.0214 50.958 70.6491 51.1122 70.2609 51.1122ZM74.8569 17.4472H75.2228C75.611 17.4472 75.9833 17.6014 76.2578 17.8759C76.5323 18.1504 76.6865 18.5227 76.6865 18.9109C76.6865 19.2991 76.5323 19.6714 76.2578 19.9459C75.9833 20.2204 75.611 20.3746 75.2228 20.3746H74.8569C74.4687 20.3746 74.0964 20.2204 73.8219 19.9459C73.5474 19.6714 73.3932 19.2991 73.3932 18.9109C73.3932 18.5227 73.5474 18.1504 73.8219 17.8759C74.0964 17.6014 74.4687 17.4472 74.8569 17.4472ZM75.4277 40.9834H75.0618C74.6736 40.9834 74.3013 40.8292 74.0268 40.5547C73.7523 40.2802 73.5981 39.9079 73.5981 39.5197C73.5981 39.1315 73.7523 38.7592 74.0268 38.4847C74.3013 38.2102 74.6736 38.056 75.0618 38.056H75.4277C75.8159 38.056 76.1882 38.2102 76.4627 38.4847C76.7372 38.7592 76.8914 39.1315 76.8914 39.5197C76.8914 39.9079 76.7372 40.2802 76.4627 40.5547C76.1882 40.8292 75.8159 40.9834 75.4277 40.9834ZM80.1555 27.4443H80.5214C80.9096 27.4443 81.2819 27.5985 81.5564 27.873C81.8309 28.1475 81.9851 28.5198 81.9851 28.9079C81.9851 29.2961 81.8309 29.6684 81.5564 29.9429C81.2819 30.2174 80.9096 30.3716 80.5214 30.3716H80.1555C79.7673 30.3716 79.395 30.2174 79.1205 29.9429C78.846 29.6684 78.6918 29.2961 78.6918 28.9079C78.6918 28.5198 78.846 28.1475 79.1205 27.873C79.395 27.5985 79.7673 27.4443 80.1555 27.4443ZM80.5653 51.1122H80.1994C79.8112 51.1122 79.4389 50.958 79.1644 50.6835C78.8899 50.409 78.7357 50.0367 78.7357 49.6485C78.7357 49.2603 78.8899 48.888 79.1644 48.6135C79.4389 48.339 79.8112 48.1848 80.1994 48.1848H80.5653C80.9535 48.1848 81.3258 48.339 81.6003 48.6135C81.8748 48.888 82.029 49.2603 82.029 49.6485C82.029 50.0367 81.8748 50.409 81.6003 50.6835C81.3258 50.958 80.9535 51.1122 80.5653 51.1122ZM86.0102 40.9834H85.6736C85.2854 40.9834 84.9131 40.8292 84.6386 40.5547C84.3641 40.2802 84.2099 39.9079 84.2099 39.5197C84.2099 39.1315 84.3641 38.7592 84.6386 38.4847C84.9131 38.2102 85.2854 38.056 85.6736 38.056H86.0395C86.4277 38.056 86.8 38.2102 87.0745 38.4847C87.349 38.7592 87.5032 39.1315 87.5032 39.5197C87.5032 39.9079 87.349 40.2802 87.0745 40.5547C86.8 40.8292 86.4277 40.9834 86.0395 40.9834H86.0102ZM91.1478 51.1122H90.7819C90.3937 51.1122 90.0214 50.958 89.7469 50.6835C89.4724 50.409 89.3182 50.0367 89.3182 49.6485C89.3182 49.2603 89.4724 48.888 89.7469 48.6135C90.0214 48.339 90.3937 48.1848 90.7819 48.1848H91.1478C91.536 48.1848 91.9083 48.339 92.1828 48.6135C92.4573 48.888 92.6115 49.2603 92.6115 49.6485C92.6115 50.0367 92.4573 50.409 92.1828 50.6835C91.9083 50.958 91.536 51.1122 91.1478 51.1122Z" fill="#FFD238"/>
<path d="M53.648 100.995C53.648 101.383 53.8022 101.755 54.0767 102.03C54.3512 102.304 54.7235 102.459 55.1117 102.459H95.7438C96.132 102.459 96.5043 102.304 96.7788 102.03C97.0533 101.755 97.2075 101.383 97.2075 100.995V95.1401H53.648V100.995Z" fill="#FFD238"/>
<path d="M88.5817 102.299C88.5817 104.117 82.5896 105.531 75.1163 105.531C67.7104 105.531 61.651 104.049 61.651 102.299C61.651 100.481 67.6431 99.0673 75.1163 99.0673C82.5896 99.0673 88.5817 100.481 88.5817 102.299Z" stroke="#FFD238" stroke-width="0.534574" stroke-miterlimit="10"/>
<path opacity="0.9091" d="M75.1163 108.022C85.6393 108.022 94.1698 105.731 94.1698 102.905C94.1698 100.079 85.6393 97.7881 75.1163 97.7881C64.5934 97.7881 56.0629 100.079 56.0629 102.905C56.0629 105.731 64.5934 108.022 75.1163 108.022Z" stroke="#FFD238" stroke-width="0.490812" stroke-miterlimit="10"/>
<path opacity="0.8182" d="M75.1163 110.58C88.7255 110.58 99.7579 107.445 99.7579 103.578C99.7579 99.7111 88.7255 96.5762 75.1163 96.5762C61.5072 96.5762 50.4748 99.7111 50.4748 103.578C50.4748 107.445 61.5072 110.58 75.1163 110.58Z" stroke="#FFD238" stroke-width="0.446982" stroke-miterlimit="10"/>
<path opacity="0.7273" d="M75.1163 113.004C91.7745 113.004 105.279 109.055 105.279 104.184C105.279 99.3131 91.7745 95.3643 75.1163 95.3643C58.4581 95.3643 44.954 99.3131 44.954 104.184C44.954 109.055 58.4581 113.004 75.1163 113.004Z" stroke="#FFD238" stroke-width="0.40322" stroke-miterlimit="10"/>
<path opacity="0.6364" d="M75.1163 115.562C94.8608 115.562 110.867 110.77 110.867 104.857C110.867 98.9452 94.8608 94.1525 75.1163 94.1525C55.3719 94.1525 39.3658 98.9452 39.3658 104.857C39.3658 110.77 55.3719 115.562 75.1163 115.562Z" stroke="#FFD238" stroke-width="0.359457" stroke-miterlimit="10"/>
<path opacity="0.5455" d="M75.1163 118.053C97.947 118.053 116.455 112.417 116.455 105.463C116.455 98.51 97.947 92.8733 75.1163 92.8733C52.2857 92.8733 33.7777 98.51 33.7777 105.463C33.7777 112.417 52.2857 118.053 75.1163 118.053Z" stroke="#FFD238" stroke-width="0.315628" stroke-miterlimit="10"/>
<path opacity="0.4545" d="M75.1163 120.477C101.033 120.477 122.043 114.027 122.043 106.069C122.043 98.112 101.033 91.6614 75.1163 91.6614C49.1994 91.6614 28.1896 98.112 28.1896 106.069C28.1896 114.027 49.1994 120.477 75.1163 120.477Z" stroke="#FFD238" stroke-width="0.271865" stroke-miterlimit="10"/>
<path opacity="0.3636" d="M75.1163 123.036C104.119 123.036 127.631 115.741 127.631 106.743C127.631 97.7441 104.119 90.4495 75.1163 90.4495C46.1132 90.4495 22.6015 97.7441 22.6015 106.743C22.6015 115.741 46.1132 123.036 75.1163 123.036Z" stroke="#FFD238" stroke-width="0.228103" stroke-miterlimit="10"/>
<path opacity="0.2727" d="M75.1164 125.527C107.169 125.527 133.152 117.388 133.152 107.349C133.152 97.309 107.169 89.1703 75.1164 89.1703C43.0642 89.1703 17.0807 97.309 17.0807 107.349C17.0807 117.388 43.0642 125.527 75.1164 125.527Z" stroke="#FFD238" stroke-width="0.184273" stroke-miterlimit="10"/>
<path opacity="0.1818" d="M75.1163 127.951C110.255 127.951 138.74 118.998 138.74 107.954C138.74 96.911 110.255 87.9584 75.1163 87.9584C39.9779 87.9584 11.4926 96.911 11.4926 107.954C11.4926 118.998 39.9779 127.951 75.1163 127.951Z" stroke="#FFD238" stroke-width="0.140511" stroke-miterlimit="10"/>
<path opacity="0.090909" d="M75.1163 130.509C113.341 130.509 144.328 120.712 144.328 108.628C144.328 96.5431 113.341 86.7465 75.1163 86.7465C36.8917 86.7465 5.90445 96.5431 5.90445 108.628C5.90445 120.712 36.8917 130.509 75.1163 130.509Z" stroke="#FFD238" stroke-width="0.0967485" stroke-miterlimit="10"/>
</svg>
