<svg width="150" height="118" viewBox="0 0 150 118" fill="none" xmlns="http://www.w3.org/2000/svg">
<path d="M70.5609 41.433C69.4563 42.5376 69.4563 44.3347 70.5609 45.4393C71.0959 45.9741 71.8073 46.2689 72.5641 46.2689C73.3206 46.2689 74.032 45.9743 74.5672 45.4391C75.6714 44.3347 75.6714 42.5376 74.567 41.433C73.4603 40.3259 71.6679 40.3255 70.5609 41.433Z" fill="#FFD238"/>
<path d="M97.3667 52.6425L99.9708 53.7163C101.07 50.7959 101.715 47.6553 101.819 44.3802H97.1148C96.5932 44.3802 96.1705 43.9575 96.1705 43.4359C96.1705 42.9143 96.5932 42.4917 97.1148 42.4917H101.819C101.714 39.1843 101.057 36.0142 99.9379 33.0695L97.3373 34.1514C97.2187 34.2007 97.0959 34.2241 96.9748 34.2241C96.6049 34.2241 96.2538 34.0052 96.1029 33.6423C95.9025 33.1609 96.1305 32.6081 96.6119 32.4077L99.2114 31.3262C97.8785 28.4048 96.0786 25.7403 93.9083 23.4267L90.5917 26.7435C90.4071 26.9278 90.1656 27.02 89.9241 27.02C89.6823 27.02 89.4406 26.9278 89.2563 26.7435C88.8876 26.3747 88.8876 25.7768 89.2563 25.4081L92.5731 22.0913C90.2374 19.9004 87.5443 18.0861 84.5901 16.7494L83.5163 19.3531C83.366 19.7174 83.014 19.9376 82.6429 19.9376C81.9749 19.9376 81.5133 19.2564 81.7704 18.633L82.8442 16.0288C79.9238 14.9297 76.7832 14.2847 73.5083 14.1803V18.8852C73.5083 19.4066 73.0854 19.8294 72.564 19.8294C72.0424 19.8294 71.6198 19.4066 71.6198 18.8852V14.1807C68.3122 14.2861 65.1421 14.9431 62.1974 16.0618L63.2793 18.6623C63.4799 19.1439 63.2519 19.6967 62.7704 19.8968C62.6519 19.9461 62.529 19.9696 62.4081 19.9696C62.038 19.9696 61.6869 19.7507 61.5358 19.3877L60.4543 16.7882C57.5329 18.1209 54.8686 19.9208 52.555 22.0911L55.8718 25.4079C56.2406 25.7768 56.2406 26.3747 55.8718 26.7433C55.6873 26.9276 55.4457 27.0198 55.2042 27.0198C54.9625 27.0198 54.7207 26.9276 54.5364 26.7433L51.2196 23.4265C49.0287 25.7622 47.2142 28.4552 45.8777 31.4095L48.4814 32.4831C48.9636 32.6819 49.1932 33.234 48.9944 33.7161C48.7947 34.1997 48.2423 34.4273 47.7615 34.229L45.1573 33.155C44.0583 36.0754 43.4134 39.216 43.309 42.4911H48.0133C48.5347 42.4911 48.9575 42.9137 48.9575 43.4354C48.9575 43.957 48.5347 44.3796 48.0133 44.3796H43.3088C43.4142 47.687 44.071 50.8571 45.1899 53.802L47.7906 52.7199C48.2718 52.5191 48.825 52.7475 49.0251 53.2288C49.2255 53.7104 48.9976 54.2632 48.516 54.4634L45.9164 55.5449C47.2494 58.4663 49.0493 61.1308 51.2196 63.4444L54.5364 60.1276C54.9052 59.7588 55.5029 59.7588 55.8718 60.1276C56.2406 60.4962 56.2406 61.0941 55.8718 61.4628L52.555 64.7796C54.8907 66.9707 57.5837 68.785 60.5379 70.1215L61.6116 67.5178C61.8106 67.0356 62.3626 66.8054 62.8444 67.0048C63.3265 67.2037 63.5564 67.7557 63.3575 68.2377L62.2837 70.8419C65.2039 71.9409 68.3447 72.5858 71.6198 72.6902V67.9867C71.6198 67.4651 72.0424 67.0424 72.564 67.0424C73.0854 67.0424 73.5083 67.4651 73.5083 67.9867V72.6912C76.8155 72.5856 79.9857 71.929 82.9305 70.81L81.8484 68.2093C81.6482 67.7278 81.8761 67.175 82.3575 66.9748C82.8387 66.7739 83.3917 67.0022 83.5919 67.4838L84.6736 70.0833C87.5949 68.7504 90.2593 66.9505 92.5731 64.7804L89.2561 61.4635C88.8874 61.0949 88.8874 60.497 89.2561 60.1284C89.6249 59.7595 90.2226 59.7595 90.5915 60.1284L93.9081 63.4452C96.0991 61.1094 97.9134 58.4162 99.2499 55.462L96.6464 54.3882C96.1643 54.1893 95.9347 53.6373 96.1333 53.1554C96.3324 52.6732 96.8844 52.4428 97.3667 52.6425ZM75.9026 46.7745C75.2376 47.4394 74.4093 47.8806 73.5083 48.0626V58.5441C73.5083 59.0657 73.0854 59.4883 72.564 59.4883C72.0424 59.4883 71.6198 59.0657 71.6198 58.5441V48.0626C70.7188 47.8806 69.8903 47.4392 69.2255 46.7746C67.6131 45.1624 67.4131 42.6647 68.625 40.8326L59.6207 31.8283C59.252 31.4595 59.252 30.8616 59.6207 30.493C59.9897 30.1243 60.5874 30.1245 60.9561 30.493L69.9598 39.4968C71.7754 38.2918 74.272 38.4676 75.9024 40.0976C77.7431 41.9383 77.7431 44.9337 75.9026 46.7745Z" fill="#FFD238"/>
<path d="M111.279 12.2754C113.361 12.2754 115.056 10.581 115.056 8.49835C115.056 6.41569 113.361 4.72131 111.279 4.72131C109.196 4.72131 107.502 6.41569 107.502 8.49835C107.502 10.581 109.196 12.2754 111.279 12.2754Z" fill="#FFD238"/>
<path d="M113.167 43.4359C113.167 20.996 95.0072 2.83276 72.564 2.83276C61.7183 2.83276 51.522 7.05625 43.8533 14.7252C27.9859 30.5923 27.9833 56.2769 43.8533 72.1465C51.5222 79.8156 61.7183 84.0391 72.564 84.0391C95.0038 84.0391 113.167 65.8793 113.167 43.4359ZM94.4713 65.573C82.2929 77.6259 62.7876 77.58 50.6566 65.573C50.5537 65.5007 50.5008 65.4485 50.4268 65.3432C38.3905 53.1815 38.4026 33.6793 50.4259 21.5295C50.457 21.4851 50.4905 21.4417 50.5301 21.402C50.5698 21.3625 50.6128 21.3293 50.6572 21.2983C53.4887 18.496 56.8531 16.2314 60.5831 14.6721C60.587 14.6704 60.5901 14.6679 60.5942 14.6662C60.5986 14.6643 60.6031 14.664 60.6074 14.6623C71.9 9.95229 85.3117 12.2348 94.4705 21.2981C94.5742 21.371 94.6278 21.4241 94.702 21.5297C97.504 24.3611 99.7684 27.725 101.328 31.4548C101.329 31.4588 101.332 31.4622 101.334 31.4663C101.336 31.4708 101.336 31.4756 101.338 31.4803C102.874 35.1638 103.725 39.2024 103.725 43.4363C103.725 47.6341 102.888 51.6397 101.377 55.2977C101.374 55.3036 101.374 55.31 101.371 55.3159C101.368 55.3232 101.364 55.3295 101.361 55.3366C99.8003 59.0989 97.5239 62.4917 94.7009 65.3435C94.6278 65.4472 94.5757 65.4995 94.4713 65.573Z" fill="#FFD238"/>
<path d="M36.6822 74.5966C34.0789 74.5966 31.9609 76.7145 31.9609 79.3179C31.9609 81.9212 34.0789 84.0392 36.6822 84.0392C39.2855 84.0392 41.4035 81.9212 41.4035 79.3179C41.4035 76.7145 39.2855 74.5966 36.6822 74.5966Z" fill="#FFD238"/>
<path d="M114.111 69.8752C115.154 69.8752 116 69.0297 116 67.9867C116 66.9437 115.154 66.0982 114.111 66.0982C113.068 66.0982 112.223 66.9437 112.223 67.9867C112.223 69.0297 113.068 69.8752 114.111 69.8752Z" fill="#FFD238"/>
<path d="M102.78 83.0949C103.823 83.0949 104.669 82.2494 104.669 81.2064C104.669 80.1634 103.823 79.3179 102.78 79.3179C101.737 79.3179 100.892 80.1634 100.892 81.2064C100.892 82.2494 101.737 83.0949 102.78 83.0949Z" fill="#FFD238"/>
<path d="M49.9018 84.9834C50.9448 84.9834 51.7903 84.1379 51.7903 83.0949C51.7903 82.0519 50.9448 81.2064 49.9018 81.2064C48.8588 81.2064 48.0133 82.0519 48.0133 83.0949C48.0133 84.1379 48.8588 84.9834 49.9018 84.9834Z" fill="#FFD238"/>
<path d="M46.1248 3.77704C47.1678 3.77704 48.0133 2.93152 48.0133 1.88852C48.0133 0.845519 47.1678 0 46.1248 0C45.0818 0 44.2362 0.845519 44.2362 1.88852C44.2362 2.93152 45.0818 3.77704 46.1248 3.77704Z" fill="#FFD238"/>
<path d="M34.7936 16.9967C35.8366 16.9967 36.6822 16.1512 36.6822 15.1082C36.6822 14.0652 35.8366 13.2197 34.7936 13.2197C33.7506 13.2197 32.9051 14.0652 32.9051 15.1082C32.9051 16.1512 33.7506 16.9967 34.7936 16.9967Z" fill="#FFD238"/>
<path d="M97.1148 5.66559C98.1578 5.66559 99.0033 4.82007 99.0033 3.77707C99.0033 2.73407 98.1578 1.88855 97.1148 1.88855C96.0718 1.88855 95.2263 2.73407 95.2263 3.77707C95.2263 4.82007 96.0718 5.66559 97.1148 5.66559Z" fill="#FFD238"/>
<path d="M88.5817 86.7908C88.5817 88.6086 82.5896 90.0225 75.1163 90.0225C67.7104 90.0225 61.651 88.5413 61.651 86.7908C61.651 84.973 67.6431 83.5591 75.1163 83.5591C82.5896 83.5591 88.5817 84.973 88.5817 86.7908Z" stroke="#FFD238" stroke-width="0.534574" stroke-miterlimit="10"/>
<path opacity="0.9091" d="M75.1163 92.5136C85.6393 92.5136 94.1698 90.2227 94.1698 87.3967C94.1698 84.5708 85.6393 82.2799 75.1163 82.2799C64.5934 82.2799 56.0629 84.5708 56.0629 87.3967C56.0629 90.2227 64.5934 92.5136 75.1163 92.5136Z" stroke="#FFD238" stroke-width="0.490812" stroke-miterlimit="10"/>
<path opacity="0.8182" d="M75.1163 95.072C88.7255 95.072 99.7579 91.9371 99.7579 88.07C99.7579 84.203 88.7255 81.0681 75.1163 81.0681C61.5072 81.0681 50.4748 84.203 50.4748 88.07C50.4748 91.9371 61.5072 95.072 75.1163 95.072Z" stroke="#FFD238" stroke-width="0.446982" stroke-miterlimit="10"/>
<path opacity="0.7273" d="M75.1163 97.4957C91.7745 97.4957 105.279 93.547 105.279 88.6759C105.279 83.8049 91.7745 79.8561 75.1163 79.8561C58.4581 79.8561 44.9539 83.8049 44.9539 88.6759C44.9539 93.547 58.4581 97.4957 75.1163 97.4957Z" stroke="#FFD238" stroke-width="0.40322" stroke-miterlimit="10"/>
<path opacity="0.6364" d="M75.1163 100.054C94.8608 100.054 110.867 95.2614 110.867 89.3492C110.867 83.4371 94.8608 78.6443 75.1163 78.6443C55.3719 78.6443 39.3658 83.4371 39.3658 89.3492C39.3658 95.2614 55.3719 100.054 75.1163 100.054Z" stroke="#FFD238" stroke-width="0.359457" stroke-miterlimit="10"/>
<path opacity="0.5455" d="M75.1164 102.545C97.947 102.545 116.455 96.9085 116.455 89.9552C116.455 83.0018 97.947 77.3651 75.1164 77.3651C52.2857 77.3651 33.7777 83.0018 33.7777 89.9552C33.7777 96.9085 52.2857 102.545 75.1164 102.545Z" stroke="#FFD238" stroke-width="0.315628" stroke-miterlimit="10"/>
<path opacity="0.4545" d="M75.1164 104.969C101.033 104.969 122.043 98.5184 122.043 90.5611C122.043 82.6038 101.033 76.1532 75.1164 76.1532C49.1994 76.1532 28.1896 82.6038 28.1896 90.5611C28.1896 98.5184 49.1994 104.969 75.1164 104.969Z" stroke="#FFD238" stroke-width="0.271865" stroke-miterlimit="10"/>
<path opacity="0.3636" d="M75.1163 107.527C104.119 107.527 127.631 100.233 127.631 91.2344C127.631 82.2359 104.119 74.9413 75.1163 74.9413C46.1132 74.9413 22.6015 82.2359 22.6015 91.2344C22.6015 100.233 46.1132 107.527 75.1163 107.527Z" stroke="#FFD238" stroke-width="0.228103" stroke-miterlimit="10"/>
<path opacity="0.2727" d="M75.1164 110.019C107.169 110.019 133.152 101.88 133.152 91.8403C133.152 81.8008 107.169 73.6621 75.1164 73.6621C43.0642 73.6621 17.0807 81.8008 17.0807 91.8403C17.0807 101.88 43.0642 110.019 75.1164 110.019Z" stroke="#FFD238" stroke-width="0.184273" stroke-miterlimit="10"/>
<path opacity="0.1818" d="M75.1163 112.442C110.255 112.442 138.74 103.49 138.74 92.4462C138.74 81.4027 110.255 72.4502 75.1163 72.4502C39.9779 72.4502 11.4926 81.4027 11.4926 92.4462C11.4926 103.49 39.9779 112.442 75.1163 112.442Z" stroke="#FFD238" stroke-width="0.140511" stroke-miterlimit="10"/>
<path opacity="0.090909" d="M75.1163 115.001C113.341 115.001 144.328 105.204 144.328 93.1195C144.328 81.0349 113.341 71.2383 75.1163 71.2383C36.8917 71.2383 5.90445 81.0349 5.90445 93.1195C5.90445 105.204 36.8917 115.001 75.1163 115.001Z" stroke="#FFD238" stroke-width="0.0967485" stroke-miterlimit="10"/>
</svg>
