<svg width="150" height="136" viewBox="0 0 150 136" fill="none" xmlns="http://www.w3.org/2000/svg">
<path fill-rule="evenodd" clip-rule="evenodd" d="M75.5203 105.299C75.5203 105.299 109.857 54.3327 109.857 35.0099C109.857 15.6871 94.5064 0 75.5203 0C56.5341 0 41.1837 15.6871 41.1837 35.0099C41.1837 54.3327 75.5203 105.299 75.5203 105.299ZM75.5203 49.8891C84.4748 49.8891 91.6787 42.5505 91.6787 33.4614C91.6787 24.3723 84.4748 17.0337 75.5203 17.0337C66.5658 17.0337 59.3619 24.3723 59.3619 33.4614C59.3619 42.5505 66.6332 49.8891 75.5203 49.8891Z" fill="#FFD238"/>
<path d="M88.5817 105.299C88.5817 107.117 82.5896 108.531 75.1163 108.531C67.7104 108.531 61.651 107.049 61.651 105.299C61.651 103.481 67.6431 102.067 75.1163 102.067C82.5896 102.067 88.5817 103.481 88.5817 105.299Z" stroke="#FFD238" stroke-width="0.534574" stroke-miterlimit="10"/>
<path opacity="0.9091" d="M75.1163 111.022C85.6393 111.022 94.1698 108.731 94.1698 105.905C94.1698 103.079 85.6393 100.788 75.1163 100.788C64.5934 100.788 56.0629 103.079 56.0629 105.905C56.0629 108.731 64.5934 111.022 75.1163 111.022Z" stroke="#FFD238" stroke-width="0.490812" stroke-miterlimit="10"/>
<path opacity="0.8182" d="M75.1163 113.58C88.7255 113.58 99.7579 110.445 99.7579 106.578C99.7579 102.711 88.7255 99.5762 75.1163 99.5762C61.5072 99.5762 50.4748 102.711 50.4748 106.578C50.4748 110.445 61.5072 113.58 75.1163 113.58Z" stroke="#FFD238" stroke-width="0.446982" stroke-miterlimit="10"/>
<path opacity="0.7273" d="M75.1163 116.004C91.7745 116.004 105.279 112.055 105.279 107.184C105.279 102.313 91.7745 98.3643 75.1163 98.3643C58.4581 98.3643 44.9539 102.313 44.9539 107.184C44.9539 112.055 58.4581 116.004 75.1163 116.004Z" stroke="#FFD238" stroke-width="0.40322" stroke-miterlimit="10"/>
<path opacity="0.6364" d="M75.1163 118.562C94.8608 118.562 110.867 113.77 110.867 107.857C110.867 101.945 94.8608 97.1525 75.1163 97.1525C55.3719 97.1525 39.3658 101.945 39.3658 107.857C39.3658 113.77 55.3719 118.562 75.1163 118.562Z" stroke="#FFD238" stroke-width="0.359457" stroke-miterlimit="10"/>
<path opacity="0.5455" d="M75.1163 121.053C97.947 121.053 116.455 115.417 116.455 108.463C116.455 101.51 97.947 95.8733 75.1163 95.8733C52.2856 95.8733 33.7777 101.51 33.7777 108.463C33.7777 115.417 52.2856 121.053 75.1163 121.053Z" stroke="#FFD238" stroke-width="0.315628" stroke-miterlimit="10"/>
<path opacity="0.4545" d="M75.1164 123.477C101.033 123.477 122.043 117.027 122.043 109.069C122.043 101.112 101.033 94.6614 75.1164 94.6614C49.1994 94.6614 28.1896 101.112 28.1896 109.069C28.1896 117.027 49.1994 123.477 75.1164 123.477Z" stroke="#FFD238" stroke-width="0.271865" stroke-miterlimit="10"/>
<path opacity="0.3636" d="M75.1163 126.036C104.119 126.036 127.631 118.741 127.631 109.743C127.631 100.744 104.119 93.4495 75.1163 93.4495C46.1131 93.4495 22.6014 100.744 22.6014 109.743C22.6014 118.741 46.1131 126.036 75.1163 126.036Z" stroke="#FFD238" stroke-width="0.228103" stroke-miterlimit="10"/>
<path opacity="0.2727" d="M75.1163 128.527C107.169 128.527 133.152 120.388 133.152 110.349C133.152 100.309 107.169 92.1703 75.1163 92.1703C43.0641 92.1703 17.0807 100.309 17.0807 110.349C17.0807 120.388 43.0641 128.527 75.1163 128.527Z" stroke="#FFD238" stroke-width="0.184273" stroke-miterlimit="10"/>
<path opacity="0.1818" d="M75.1163 130.951C110.255 130.951 138.74 121.998 138.74 110.954C138.74 99.911 110.255 90.9584 75.1163 90.9584C39.9779 90.9584 11.4926 99.911 11.4926 110.954C11.4926 121.998 39.9779 130.951 75.1163 130.951Z" stroke="#FFD238" stroke-width="0.140511" stroke-miterlimit="10"/>
<path opacity="0.090909" d="M75.1163 133.509C113.341 133.509 144.328 123.712 144.328 111.628C144.328 99.5431 113.341 89.7465 75.1163 89.7465C36.8916 89.7465 5.90442 99.5431 5.90442 111.628C5.90442 123.712 36.8916 133.509 75.1163 133.509Z" stroke="#FFD238" stroke-width="0.0967485" stroke-miterlimit="10"/>
</svg>
